<?xml version="1.0" standalone="no"?>
<!DOCTYPE svg PUBLIC "-//W3C//DTD SVG 20010904//EN"
 "http://www.w3.org/TR/2001/REC-SVG-20010904/DTD/svg10.dtd">
<svg version="1.0" xmlns="http://www.w3.org/2000/svg"
 width="500.000000pt" height="500.000000pt" viewBox="0 0 500.000000 500.000000"
 preserveAspectRatio="xMidYMid meet">
<metadata>
Created by potrace 1.14, written by Peter Selinger 2001-2017
</metadata>
<g transform="translate(0.000000,500.000000) scale(0.100000,-0.100000)"
fill="#000000" stroke="none">
<path d="M2250 4948 c-209 -26 -359 -59 -521 -112 -434 -144 -811 -400 -1123
-765 -31 -37 -173 -233 -196 -271 -60 -102 -126 -230 -161 -310 -22 -52 -44
-104 -50 -115 -12 -28 -69 -205 -75 -235 -3 -14 -11 -50 -19 -80 -7 -30 -19
-84 -25 -120 -6 -36 -13 -76 -16 -90 -22 -124 -26 -513 -5 -660 11 -78 32
-184 66 -336 3 -11 19 -63 36 -115 208 -632 650 -1143 1248 -1444 196 -98 493
-195 671 -219 19 -2 69 -10 110 -17 114 -18 455 -19 590 -3 93 12 235 37 330
59 127 30 330 107 490 187 638 318 1110 904 1285 1596 13 53 27 115 30 137 4
22 8 47 10 55 2 8 7 38 10 65 4 28 9 61 12 75 3 14 6 120 8 235 2 200 -6 318
-35 474 -6 31 -13 70 -16 86 -8 48 -44 173 -76 270 -185 545 -578 1029 -1072
1319 -301 177 -572 271 -946 327 -91 14 -470 19 -560 7z"/>
</g>
</svg>
